<?xml version="1.0" encoding="UTF-8"?>
<svg id="Capa_1" data-name="Capa 1" xmlns="http://www.w3.org/2000/svg" viewBox="0 0 566.93 566.93">
  <defs>
    <style>
      .cls-1 {
        fill: #063;
      }

      .cls-2 {
        fill: none;
        stroke: #063;
        stroke-miterlimit: 10;
        stroke-width: 10px;
      }

      .cls-3 {
        fill: #95c11f;
        font-family: Arial-BoldMT, Arial;
        font-size: 72px;
      }
    </style>
  </defs>
  <g>
    <path class="cls-2" d="M422.74,463.27c-40.4,33.48-92.27,53.6-148.84,53.6-128.91,0-233.41-104.5-233.41-233.41S144.99,50.06,273.9,50.06s233.41,104.5,233.41,233.41c0,27.16-4.6,53.12-13.13,77.37H134.23l-.04-.08c-12.7-22.9-19.93-49.25-19.93-77.29,0-88.17,71.47-159.64,159.64-159.64s159.64,71.47,159.64,159.64c0,7.75-.55,15.37-1.62,22.82"/>
    <polygon class="cls-1" points="396.55 463.43 420.47 465.17 418.72 489.09 429.62 479.67 431.36 455.76 407.45 454.02 396.55 463.43"/>
  </g>
  <text class="cls-3" transform="translate(165.08 246.48) scale(.7)"><tspan x="0" y="0">DISEÑO</tspan></text>
  <text class="cls-3" transform="translate(120.11 306.48)"><tspan x="0" y="0"> </tspan></text>
  <text class="cls-3" transform="translate(140.11 306.48) scale(.7)"><tspan x="0" y="0">CIRCULAR</tspan></text>
</svg>