<?xml version="1.0" encoding="utf-8"?>
<!-- Generator: Adobe Illustrator 26.5.0, SVG Export Plug-In . SVG Version: 6.00 Build 0)  -->
<svg version="1.1" id="Layer_1" xmlns="http://www.w3.org/2000/svg" xmlns:xlink="http://www.w3.org/1999/xlink" x="0px" y="0px"
	 viewBox="0 0 1024 768" style="enable-background:new 0 0 1024 768;" xml:space="preserve">
<style type="text/css">
	.st0{fill:none;stroke:#000000;stroke-width:2;stroke-linecap:round;stroke-linejoin:round;stroke-miterlimit:10;}
	.st1{fill:none;stroke:#006633;stroke-width:17;stroke-miterlimit:10;}
	.st2{fill:#006633;}
</style>
<g>
	<g>
		<path class="st0" d="M608.74,311.34c1.32,0.93,1.73,2.08,1.77,3.67c0.21,8.26-1.01,16.17-5.15,23.66
			c-3.37,6.1-0.48,12.23,0.49,18.36c2.15,13.6,4.6,27.18,5.17,40.96"/>
		<path class="st0" d="M426.75,314.49c-1.8-1.16-3.49-0.65-3.89,1.07c-0.52,2.23-2.21,4.47-1.2,6.79
			c3.74,8.63-0.24,16.67-2.46,24.67c-3.92,14.18-6.2,28.47-6.17,43.1c0,2.28-0.35,4.55-0.54,6.83"/>
		<path class="st0" d="M588.78,328.67c-4.49,10.1-1.06,20.68-2.18,31c-1.06,9.76-1.33,19.59-1.77,29.4
			c-0.13,2.96,0.33,5.95,0.52,8.93"/>
		<path class="st0" d="M548.84,321.32c5.7,1.67,10.36,5.21,14.63,8.62c4.35,3.47,4.58,9.38,3.49,14.46
			c-1.41,6.54-0.79,12.94-0.51,19.46c0.49,11.37,0.46,22.75,0.65,34.13"/>
		<path class="st0" d="M503.2,312.39c4.32,3.26,9.37,4.75,15.14,5.56c-0.18-4.87,2.53-9.26,1.41-14.06c-2.98,0.18-4.91,2-7.66,1.62
			c-4.18-4.82-7.35-10.64-12.79-15c-7.49,4.28-10.3,11.9-16.28,17.04c2.85,1.73,5.49,3.34,8.29,5.05c4.24-2.64,4.84-7.47,7.94-11.22
			c2.29,3.26,5.85,5.02,7.4,8.41c-1.14,0.69-2.29,1.38-3.43,2.08"/>
		<path class="st0" d="M448.43,334.45c1.46,1.63,2.1,4.04,0.48,5.14c-6.82,4.6-4.69,11.18-4.29,16.91
			c0.96,13.83,2.39,27.62,2.1,41.5"/>
		<path class="st0" d="M630.42,343.38c-0.77,1.39-1.55,2.79-2.34,4.22c0.84,1.96,2.68,2.62,4.62,2.54c2.28-0.09,3.81-1.52,3.94-3.62
			c0.12-1.93-0.84-2.97-3.34-3.3c-1.89-0.25-4.19-0.41-5.73-1.95c-8.42,3.91-7.9,13.52-3.88,21.48c1.39,2.75,3.75,5.28,6.22,7.34
			c8.67,7.23,14.11,16.21,17.6,26.33c0.24,0.69-0.16,1.63,1.17,1.57"/>
		<path class="st0" d="M549.41,340.23c2.27,0.71,2.49,2.29,2.3,4.2c-0.93,9.33-2.3,18.6-3.97,27.84
			c-1.55,8.55-2.71,17.15-4.04,25.73"/>
		<path class="st0" d="M507.19,350.73c1.09-7.3,0.73-6.6,7.98-5.7c3.45,0.43,6.87,0.21,10.28,0.47c4.39,0.34,6.07-1.48,5.1-5.27
			c-1.18-4.58-2.07-9.34-4.12-13.6c-1.87-3.88-5.92-3.09-9.7-1.95c0.68,3.64,3.33,6.66,2.25,10.22
			c-11.07,2.02-11.15,1.99-12.34-4.14"/>
		<path class="st0" d="M483.8,340.75c-3.42,0.18-6.89,0.12-10.26,0.59c-3.15,0.45-4.72,5.57-2.85,8.85
			c2.22,3.88,4.98,7.55,6.74,11.6c3.37,7.73,3.06,16.02,2.76,24.12c-0.15,4.02-0.12,8.06-0.39,12.08"/>
		<path class="st0" d="M662.94,305.04c-6.66,1.58-13.37,2.96-19.96,4.77c-15.1,4.15-18.29,17.3-9.03,26.86
			c-1.16,1.86-2.35,3.76-3.54,5.66"/>
		<path class="st0" d="M601.33,319.22c-0.38-0.53-0.87-1.01-1.12-1.58c-0.79-1.82,2.71-3.23,0.56-5.25
			c-2.37-2.23-5.24-3.37-8.57-3.69c-0.39-0.04-0.75-0.36-1.41-0.7c0.26-1.41,1.21-3.2,0.7-4.49c-0.94-2.36-2.82-4.24-6.13-2.68
			c-5,2.37-6.19,2.07-6.67-3.16c-0.3-3.28-1.8-4.53-4.74-5.24c-2.09,5.6-1.78,15.39,0.55,19.96c0.91,1.79,0.31,3.37-0.3,5.31
			c-0.85,2.7-2.42,5.1-3.1,7.81"/>
		<path class="st0" d="M575.65,265.65c0.19,0.35,0.35,0.71,0.57,1.05c4.48,6.81,6.93,9.16-5.14,11c-5.77,0.88-5.23,4.7-5.09,8.95
			c-11.55,0.29-9.38,10.54-13.73,16.9c-2.86-3.01-6.47-4.96-6.81-9.02c-0.26-3.04,0.87-6.41-3.26-8.06
			c5.09-8.38,11.15-14.96,20.21-19.47c4.58-2.27,8.58-2.74,13.25-1.88"/>
		<path class="st0" d="M665.22,305.57c0.11,8.95,0.64,17.89-6.78,25.27c-4.62,4.58-9.86,6.83-16.62,6.29
			c-1.09-0.09-2.44-0.62-3.42,0.48"/>
		<path class="st0" d="M440.44,313.97c1.52-1.93,2.6-4.76,4.65-5.61c6.7-2.77,6.71-8.32,6.53-13.29
			c-0.17-4.65-8.95-10.17-13.95-11.75c-4.88-1.54-9.2,0.21-13.76,0.19"/>
		<path class="st0" d="M645.26,363.86c6.75,6.6,14.44,12.35,19.54,20.41c2.7,4.27,5.22,8.48,6.7,13.21"/>
		<path class="st0" d="M602.47,319.22c4.44-6.27,7.94-12.67,8.74-20.47c1-9.8-2.29-18.03-9.46-24.57
			c-6.81-6.22-14.94-11.03-25.53-9.06"/>
		<path class="st0" d="M415.91,287.71c-7.26,7.4-6.45,15.44,2.32,20.43c3.32,1.88,6.84,3.62,10.8,4.26c0,1.93,0.07,3.85-0.02,5.78
			c-0.12,2.68,0.26,5.9,2.94,6.61c3.19,0.84,6.74,0.45,9.76-2.29c2.49-2.26,5.14-4.47,7.18-7.02c1.96-2.45,3.13-5.53,0.11-8.33"/>
		<path class="st0" d="M476.39,340.75c-1.02-6.61,1.44-13.2,5.72-15.21c0.3-0.14,0.75-0.02,1.3-0.02c-0.64-1.95-1.63-3.84-1.79-5.78
			c-0.17-2.1-1.25-3.63-2.36-5.25c-4.79,1.19-8.79,3.83-13.82,5.85c3.88,2.56,4.28,4.98,1.4,8.45c-2.3,2.78-3.24,6.53-4.71,9.87
			c-2.8,6.33-0.71,9.19,6.84,9.45"/>
		<path class="st0" d="M665.22,303.99c-5.25,8.47-13.07,14.88-20.6,21.47c-3.72,3.25-7.63,6.29-10.78,10.04"/>
		<path class="st0" d="M542.56,287.71c-4.54,8.25-2,16.36,1.33,24.09c1.65,3.84,4.29,7.39,4.25,11.62c-0.02,2.1,2.71,2.31,2.41,4.2"
			/>
		<path class="st0" d="M647.54,354.93c5.9-1.24,11.34-3.08,14.16-9.15c-7-1.21-12.07,1.69-17.01,4.95"/>
		<path class="st0" d="M597.9,273.53c-1.98,2.59-3.58,5.36-4.63,8.33c5.77,5.97,7.34,6.35,15.47,3.75"/>
		<path class="st0" d="M601.9,320.53c-10.64,6.87-21.71,12.22-35.38,8.7c-0.69-0.18-1.7-0.37-2.27,0.49"/>
		<path class="st0" d="M506.62,327.62c-1.27,2.87-3.38,5.53-5.38,7.68c-3.09,3.32-2.49,5.93-0.89,9.12"/>
		<path class="st0" d="M542.56,311.34c-5.05,3.09-4,7.94-3.24,12.05c1.01,5.43,3.08,10.78,7.8,14.73"/>
		<path class="st0" d="M444.44,262.5c-1.14,5.6-2.28,11.2-3.42,16.81"/>
		<path class="st0" d="M496.35,337.08c-0.57-1.23-1.07-2.49-1.73-3.67c-0.73-1.29-2.25-1.43-3.36-0.97
			c-0.88,0.37-1.74,1.06-1.87,2.52c-0.42,4.58-2.17,9-1.44,13.94c-4.02-0.16-7.69,2.96-10.31-1.47c1.02-1.45,1.76-3.16,1.6-5.11"/>
		<path class="st0" d="M426.75,297.16c6.39,4.83,3.69,12.53,7.1,18.5c1.3-0.35,2.81-0.76,4.31-1.17"/>
		<path class="st0" d="M415.91,266.7c1.9,4.2,3.8,8.4,5.71,12.6"/>
		<path class="st0" d="M429.03,266.7c0.32,4.2-0.67,8.44,0.57,12.6"/>
		<path class="st0" d="M437.88,295.59c-4.99,6.97-2.39,13.25,1.95,19.46c0.72,1.03,0.81,2.42,1.19,3.65"/>
		<path class="st0" d="M488.37,332.35c-4.42-1.5-6.1,0.13-5.72,4.2c0.1,1.04,0.01,2.1,0.01,3.15"/>
		<path class="st0" d="M638.41,338.65c4.33,2.13,4.8,6.32,6.28,9.98"/>
		<path class="st0" d="M451.28,333.92c-1.34-0.1-2.68-0.19-4.17-0.3c1.19-4.82,6.61-9.57-0.4-13.88"/>
		<path class="st0" d="M649.82,359.13c2.5-0.21,5.17-2.37,7.64,0.81c-2.56,2.86-6.61,2.66-9.92,3.92"/>
		<path class="st0" d="M498.07,337.6c-3.33,1.43-6.04,3.95-5.65,5.77c0.88,4.15,4.18,2.34,6.79,2.11"/>
		<path class="st0" d="M439.87,325c-1,2.93,1.92,3.7,3.42,5.25"/>
		<path class="st0" d="M443.3,319.74c-2.85-1.88-5.71,0.94-8.56,0"/>
		<path class="st0" d="M660.66,354.41c-0.36,2.1-3.28,1.44-3.99,3.15"/>
		<path class="st0" d="M487.8,341.8c-0.95-0.56-1.9,1.38-2.85,0"/>
	</g>
	<g>
		<g>
			<path d="M497.36,351.89c2.08,14.48-5.69,30.81,3.81,43.85c0.84,1.16,2.8,0.04,1.94-1.14c-4.15-5.69-4.87-12.78-4.5-19.63
				c0.43-7.92,2.06-15.75,0.92-23.69C499.32,349.87,497.15,350.48,497.36,351.89L497.36,351.89z"/>
		</g>
	</g>
	<g>
		<g>
			<path d="M499.58,345.21c1.94,2.22,4.1,4.21,6.47,5.96c0.47,0.35,1.28,0.09,1.54-0.4c0.31-0.59,0.1-1.16-0.4-1.54
				c-0.15-0.11-0.29-0.22-0.44-0.33c-0.06-0.04-0.12-0.09-0.18-0.13c0.12,0.09-0.03-0.03-0.08-0.06c-0.26-0.21-0.52-0.41-0.78-0.63
				c-0.54-0.45-1.08-0.92-1.59-1.4c-1.04-0.97-2.02-1.99-2.96-3.06c-0.39-0.45-1.2-0.43-1.59,0
				C499.15,344.1,499.17,344.74,499.58,345.21L499.58,345.21z"/>
		</g>
	</g>
</g>
<g>
	<path class="st1" d="M696.37,586.29c-46.37,36.57-104.99,58.4-168.72,58.4c-150.26,0-272.07-121.35-272.07-271.05
		S377.39,102.6,527.65,102.6s272.07,121.35,272.07,271.05c0,31.54-5.37,61.69-15.31,89.85H364.84l-0.05-0.09
		c-14.8-26.59-23.23-57.2-23.23-89.76c0-102.38,83.31-185.38,186.08-185.38s186.08,83,186.08,185.38c0,9-0.64,17.85-1.89,26.5"/>
	<polygon class="st2" points="651.84,585.92 692.46,589.45 688.91,630.06 707.65,614.33 711.19,573.73 670.58,570.18 	"/>
</g>
</svg>
